<svg width="24" height="25" viewBox="0 0 24 25" fill="none" xmlns="http://www.w3.org/2000/svg">
<rect width="24" height="24" transform="translate(0 0.857178)" fill="white" fill-opacity="0.01"/>
<path fill-rule="evenodd" clip-rule="evenodd" d="M14.5 13.8662H9.5C8.12 13.8662 7 14.9862 7 16.3692V20.3472C8.47848 21.3396 10.2193 21.8685 12 21.8662C13.7807 21.8685 15.5216 21.3396 17 20.3472V16.3692C17.0003 15.7058 16.7371 15.0694 16.2682 14.6001C15.7994 14.1307 15.1634 13.8667 14.5 13.8662Z" fill="#475467"/>
<path d="M12 12.8572C13.6569 12.8572 15 11.514 15 9.85718C15 8.20032 13.6569 6.85718 12 6.85718C10.3431 6.85718 9 8.20032 9 9.85718C9 11.514 10.3431 12.8572 12 12.8572Z" fill="#475467"/>
<path d="M12 20.8572C14.1217 20.8572 16.1566 20.0143 17.6569 18.514C19.1571 17.0137 20 14.9789 20 12.8572C20 10.7354 19.1571 8.70061 17.6569 7.20032C16.1566 5.70003 14.1217 4.85718 12 4.85718C9.87827 4.85718 7.84344 5.70003 6.34315 7.20032C4.84285 8.70061 4 10.7354 4 12.8572C4 14.9789 4.84285 17.0137 6.34315 18.514C7.84344 20.0143 9.87827 20.8572 12 20.8572ZM12 22.8572C6.477 22.8572 2 18.3802 2 12.8572C2 7.33418 6.477 2.85718 12 2.85718C17.523 2.85718 22 7.33418 22 12.8572C22 18.3802 17.523 22.8572 12 22.8572Z" fill="#475467"/>
</svg>
