<svg width="24" height="25" viewBox="0 0 24 25" fill="none" xmlns="http://www.w3.org/2000/svg">
<rect width="24" height="24" transform="translate(0 0.857178)" fill="white" fill-opacity="0.01"/>
<path fill-rule="evenodd" clip-rule="evenodd" d="M12 21.8572C13.1819 21.8572 14.3522 21.6244 15.4442 21.1721C16.5361 20.7198 17.5282 20.0569 18.364 19.2211C19.1997 18.3854 19.8626 17.3933 20.3149 16.3013C20.7672 15.2094 21 14.0391 21 12.8572C21 11.6753 20.7672 10.505 20.3149 9.41303C19.8626 8.3211 19.1997 7.32894 18.364 6.49322C17.5282 5.65749 16.5361 4.99455 15.4442 4.54226C14.3522 4.08997 13.1819 3.85718 12 3.85718C9.61305 3.85718 7.32387 4.80539 5.63604 6.49322C3.94821 8.18104 3 10.4702 3 12.8572C3 15.2441 3.94821 17.5333 5.63604 19.2211C7.32387 20.909 9.61305 21.8572 12 21.8572ZM11.1 19.9942C9.36032 19.7772 7.75986 18.932 6.59966 17.6177C5.43945 16.3033 4.79944 14.6103 4.8 12.8572C4.8 12.2992 4.872 11.7682 4.989 11.2462L9.3 15.5572V16.4572C9.3 17.4472 10.11 18.2572 11.1 18.2572V19.9942ZM17.31 17.7082C17.1958 17.3445 16.9682 17.0268 16.6605 16.8017C16.3529 16.5766 15.9812 16.4559 15.6 16.4572H14.7V13.7572C14.7 13.2622 14.295 12.8572 13.8 12.8572H8.4V11.0572H10.2C10.695 11.0572 11.1 10.6522 11.1 10.1572V8.35718H12.9C13.89 8.35718 14.7 7.54718 14.7 6.55718V6.18818C17.337 7.25918 19.2 9.84218 19.2 12.8572C19.2 14.7292 18.48 16.4302 17.31 17.7082Z" fill="#475467"/>
</svg>
