<svg width="24" height="25" viewBox="0 0 24 25" fill="none" xmlns="http://www.w3.org/2000/svg">
<path fill-rule="evenodd" clip-rule="evenodd" d="M4.995 5.85742H19.005C20.107 5.85742 21 6.75242 21 7.85142V19.8634C21 20.1254 20.9484 20.3847 20.8481 20.6267C20.7478 20.8687 20.6009 21.0886 20.4156 21.2737C20.2304 21.4589 20.0104 21.6058 19.7684 21.7059C19.5263 21.8061 19.2669 21.8576 19.005 21.8574H4.995C4.46607 21.8574 3.95878 21.6474 3.58468 21.2735C3.21057 20.8995 3.00027 20.3924 3 19.8634V7.85142C3 6.75042 3.892 5.85742 4.995 5.85742ZM5 9.85742V18.8574C5 19.1226 5.10536 19.377 5.29289 19.5645C5.48043 19.7521 5.73478 19.8574 6 19.8574H18C18.2652 19.8574 18.5196 19.7521 18.7071 19.5645C18.8946 19.377 19 19.1226 19 18.8574V9.85742H5ZM6 4.85742C6 4.59221 6.10536 4.33785 6.29289 4.15032C6.48043 3.96278 6.73478 3.85742 7 3.85742C7.26522 3.85742 7.51957 3.96278 7.70711 4.15032C7.89464 4.33785 8 4.59221 8 4.85742V5.85742H6V4.85742ZM16 4.85742C16 4.59221 16.1054 4.33785 16.2929 4.15032C16.4804 3.96278 16.7348 3.85742 17 3.85742C17.2652 3.85742 17.5196 3.96278 17.7071 4.15032C17.8946 4.33785 18 4.59221 18 4.85742V5.85742H16V4.85742ZM7 13.8574V11.8564H9V13.8574H7ZM15 13.8574V11.8564H17V13.8574H15ZM11 13.8574V11.8564H13.001V13.8574H11ZM7 17.8574V15.8574H9V17.8574H7ZM11 17.8574V15.8574H13.001V17.8574H11ZM15 17.8574V15.8574H17V17.8574H15Z" fill="#44546F"/>
</svg>
