<svg width="24" height="25" viewBox="0 0 24 25" fill="none" xmlns="http://www.w3.org/2000/svg">
<rect width="24" height="24" transform="translate(0 0.857422)" fill="white" fill-opacity="0.01"/>
<path fill-rule="evenodd" clip-rule="evenodd" d="M10.294 10.5556C10.2008 10.4637 10.1268 10.3542 10.0762 10.2334C10.0257 10.1126 9.99969 9.98301 9.99969 9.8521C9.99969 9.72119 10.0257 9.59158 10.0762 9.47081C10.1268 9.35004 10.2008 9.24051 10.294 9.1486C10.483 8.96203 10.7379 8.85742 11.0035 8.85742C11.2691 8.85742 11.524 8.96203 11.713 9.1486L14.678 12.0886C14.7802 12.1899 14.8613 12.3105 14.9167 12.4433C14.972 12.5762 15.0005 12.7187 15.0005 12.8626C15.0005 13.0065 14.972 13.149 14.9167 13.2819C14.8613 13.4147 14.7802 13.5353 14.678 13.6366L11.723 16.5666C11.5339 16.7535 11.2788 16.8583 11.013 16.8583C10.7472 16.8583 10.492 16.7535 10.303 16.5666C10.2098 16.4747 10.1358 16.3652 10.0852 16.2444C10.0347 16.1236 10.0087 15.994 10.0087 15.8631C10.0087 15.7322 10.0347 15.6026 10.0852 15.4818C10.1358 15.361 10.2098 15.2515 10.303 15.1596L12.621 12.8626L10.294 10.5556Z" fill="#344054"/>
</svg>
