<svg width="24" height="25" viewBox="0 0 24 25" fill="none" xmlns="http://www.w3.org/2000/svg">
<rect width="24" height="24" transform="translate(0 0.857178)" fill="white" fill-opacity="0.01"/>
<path d="M5 7.85718V17.8572H19V7.85718H5ZM19 5.85718C20.1 5.85718 21 6.75718 21 7.85718V17.8572C21 18.9572 20.1 19.8572 19 19.8572H5C3.9 19.8572 3 18.9572 3 17.8572V7.85718C3 6.75718 3.9 5.85718 5 5.85718H19Z" fill="#475467"/>
<path fill-rule="evenodd" clip-rule="evenodd" d="M5.498 7.35718H3.124C3.273 7.79718 3.523 8.21118 3.874 8.56218L9.756 14.4432C10.0455 14.7329 10.3892 14.9627 10.7676 15.1196C11.1459 15.2764 11.5514 15.3571 11.961 15.3571C12.3706 15.3571 12.7761 15.2764 13.1544 15.1196C13.5328 14.9627 13.8765 14.7329 14.166 14.4432L20.048 8.56218C20.398 8.21118 20.648 7.79718 20.797 7.35718H18.424L12.752 13.0292C12.6481 13.1332 12.5247 13.2156 12.3889 13.2719C12.2531 13.3282 12.1075 13.3572 11.9605 13.3572C11.8135 13.3572 11.6679 13.3282 11.5321 13.2719C11.3963 13.2156 11.2729 13.1332 11.169 13.0292L5.498 7.35718Z" fill="#475467"/>
</svg>
