<svg width="32" height="33" viewBox="0 0 32 33" fill="none" xmlns="http://www.w3.org/2000/svg">
<rect y="0.857422" width="32" height="32" rx="16" fill="#6941C6"/>
<path fill-rule="evenodd" clip-rule="evenodd" d="M16.8333 16.0241V10.1849C16.8325 9.96472 16.7442 9.75387 16.5879 9.59871C16.4317 9.44354 16.2202 9.35676 16 9.35743C15.5367 9.35743 15.1667 9.72826 15.1667 10.1849V16.0241H9.3275C9.1073 16.025 8.89645 16.1132 8.74129 16.2695C8.58612 16.4258 8.49934 16.6372 8.5 16.8574C8.5 17.3216 8.87084 17.6908 9.3275 17.6908H15.1667V23.5299C15.1667 23.9866 15.54 24.3574 16 24.3574C16.4633 24.3574 16.8333 23.9866 16.8333 23.5299V17.6908H22.6725C22.8927 17.6899 23.1036 17.6016 23.2587 17.4454C23.4139 17.2891 23.5007 17.0776 23.5 16.8574C23.5 16.3941 23.1292 16.0241 22.6725 16.0241H16.8333Z" fill="#FCFCFD"/>
</svg>
