<svg width="18" height="18" viewBox="0 0 18 18" fill="none" xmlns="http://www.w3.org/2000/svg">
<g opacity="0.7" clip-path="url(#clip0_860_664)">
<path d="M16.3125 0.421871H1.6875C1.35567 0.418494 1.03605 0.546893 0.798777 0.778894C0.561503 1.0109 0.425955 1.32755 0.421875 1.65937V16.3434C0.426693 16.6748 0.562565 16.9907 0.799758 17.2221C1.03695 17.4535 1.35615 17.5815 1.6875 17.5781H16.3125C16.6444 17.5808 16.9638 17.4519 17.2009 17.2198C17.4381 16.9876 17.5737 16.671 17.5781 16.3392V1.65515C17.5722 1.3243 17.4359 1.00916 17.1989 0.778223C16.962 0.547287 16.6434 0.419225 16.3125 0.421871Z" fill="#0076B2"/>
<path d="M2.96153 6.85265H5.50825V15.0469H2.96153V6.85265ZM4.2356 2.77453C4.52769 2.77453 4.81323 2.86116 5.05608 3.02347C5.29893 3.18578 5.48818 3.41647 5.5999 3.68636C5.71161 3.95625 5.74077 4.25321 5.68368 4.53967C5.6266 4.82613 5.48583 5.08923 5.27919 5.29568C5.07254 5.50212 4.80931 5.64264 4.5228 5.69945C4.23628 5.75627 3.93935 5.72683 3.66957 5.61485C3.39978 5.50288 3.16927 5.31341 3.0072 5.0704C2.84512 4.8274 2.75876 4.54178 2.75903 4.24968C2.75941 3.85832 2.91514 3.48311 3.19201 3.20651C3.46887 2.9299 3.84423 2.77453 4.2356 2.77453ZM7.10575 6.85265H9.547V7.97765H9.58075C9.92106 7.33359 10.7508 6.65437 11.9897 6.65437C14.5687 6.64875 15.0468 8.34609 15.0468 10.5469V15.0469H12.5001V11.0602C12.5001 10.1109 12.4833 8.8889 11.1768 8.8889C9.87044 8.8889 9.64825 9.9239 9.64825 10.9983V15.0469H7.10575V6.85265Z" fill="white"/>
</g>
<defs>
<clipPath id="clip0_860_664">
<rect width="18" height="18" fill="white"/>
</clipPath>
</defs>
</svg>
