<svg width="14" height="14" viewBox="0 0 14 14" fill="none" xmlns="http://www.w3.org/2000/svg">
<path fill-rule="evenodd" clip-rule="evenodd" d="M12.8655 9.91652L10.4645 8.69864C10.4645 8.69864 9.82604 8.45763 9.33084 9.00899L8.54325 9.93026C8.54325 9.93026 8.20556 10.2608 7.69707 9.93273C6.14821 9.0196 4.89441 7.94692 3.78616 6.53303C3.35211 5.98214 3.67159 5.6954 3.67159 5.6954L4.24955 5.01987C4.72522 4.45286 4.39845 3.85477 4.39845 3.85477L3.08573 1.41248C2.40245 0.328255 0.709561 1.29865 0.310256 2.41038C-0.61937 4.99033 1.36183 7.29159 2.88953 9.0171C3.61457 9.83685 4.56805 10.5782 5.36045 11.165C6.74843 12.1901 9.73007 14.0188 12.1585 12.7417C13.2025 12.1917 14.0342 10.4423 12.8655 9.91652Z" fill="#475467"/>
</svg>
